<?xml version="1.0" encoding="utf-8"?>
<!-- Generator: Adobe Illustrator 23.0.1, SVG Export Plug-In . SVG Version: 6.00 Build 0)  -->
<svg version="1.1" id="Layer_1" xmlns="http://www.w3.org/2000/svg" xmlns:xlink="http://www.w3.org/1999/xlink" x="0px" y="0px"
	 viewBox="0 0 71 71" style="enable-background:new 0 0 71 71;" xml:space="preserve">
<style type="text/css">
	.st0{fill:#56B300;}
	.st1{fill:#985123;}
	.st2{fill:#FF9600;}
	.st3{fill:#FFFFFF;}
</style>
<g>
	<g>
		<path class="st0" d="M35.3,17.1c0,0-2.2-16.4,17.6-17.1C52.9,0,51.9,18.4,35.3,17.1z"/>
	</g>
	<g>
		<path class="st1" d="M36.8,25.6c0,1.8-1.5,3.2-3.2,3.2h-0.5c-1.8,0-3.2-1.5-3.2-3.2V6.1c0-1.8,1.5-3.2,3.2-3.2h0.5
			c1.8,0,3.2,1.5,3.2,3.2V25.6z"/>
	</g>
	<g>
		<circle class="st2" cx="35.5" cy="43" r="28"/>
	</g>
</g>
<circle class="st3" cx="35.7" cy="43.2" r="25.6"/>
<path class="st2" d="M36.8,42.2c10.3-3.8,19.8-6.6,20.7-8.1c0.9-1.4-5.5-10.3-8.2-9.8C46.6,24.9,36.8,42.2,36.8,42.2z"/>
<path class="st2" d="M34.3,43.7c-10.3,3.8-19.8,6.6-20.7,8.1c-0.9,1.4,5.5,10.3,8.2,9.8S34.3,43.7,34.3,43.7z"/>
<path class="st2" d="M33.9,42.9c-10-4.6-18.7-9.3-20.3-8.9s-3.4,11.2-1.1,12.7S33.9,42.9,33.9,42.9z"/>
<path class="st2" d="M37.2,43.1c10,4.6,18.7,9.2,20.4,8.8c1.6-0.4,3.3-11.2,1.1-12.7C56.3,37.7,37.2,43.1,37.2,43.1z"/>
<path class="st2" d="M36.8,44.1c3.6,10.4,6.3,19.9,7.8,20.8c1.4,0.9,10.4-5.4,9.9-8.1C54,54.1,36.8,44.1,36.8,44.1z"/>
<path class="st2" d="M34.7,42.2c-3.3-10.5-5.8-20.1-7.2-21c-1.4-1-10.6,5.1-10.1,7.8C17.8,31.7,34.7,42.2,34.7,42.2z"/>
<path class="st2" d="M35.8,41.6c4.7-9.9,9.5-18.6,9.1-20.2s-11.2-3.5-12.7-1.2C30.7,22.4,35.8,41.6,35.8,41.6z"/>
<path class="st2" d="M35.4,44.1c-4.7,9.9-9.5,18.6-9.1,20.2c0.4,1.6,11.2,3.5,12.7,1.2C40.6,63.3,35.4,44.1,35.4,44.1z"/>
</svg>
