<?xml version="1.0" encoding="utf-8"?>
<!-- Generator: Adobe Illustrator 23.0.6, SVG Export Plug-In . SVG Version: 6.00 Build 0)  -->
<svg version="1.1" id="Layer_1" xmlns="http://www.w3.org/2000/svg" xmlns:xlink="http://www.w3.org/1999/xlink" x="0px" y="0px"
	 viewBox="0 0 71 71" style="enable-background:new 0 0 71 71;" xml:space="preserve">
<style type="text/css">
	.st0{fill:#F9BF70;}
</style>
<path class="st0" d="M36.6,41.4c10.8-1.7,20.7-2.6,21.9-3.9c1.2-1.2-3.4-11.2-6.1-11.2C49.6,26.3,36.6,41.4,36.6,41.4z"/>
<path class="st0" d="M35.4,44.2C27,51.3,19,57.2,18.7,58.9c-0.4,1.6,8.7,7.8,11.1,6.4C32.1,63.9,35.4,44.2,35.4,44.2z"/>
<path class="st0" d="M36,40.9c5.1-9.7,10.2-18.2,9.9-19.9c-0.3-1.6-11-3.9-12.7-1.8C31.6,21.5,36,40.9,36,40.9z"/>
<path class="st0" d="M34.7,42.9c-10.8-1.9-20.5-4.2-21.9-3.4S12.4,51.3,15,52.1C17.6,53,34.7,42.9,34.7,42.9z"/>
<path class="st0" d="M36.8,42.9c8.7,6.7,16.1,13.2,17.9,13.2c1.6,0,5.7-10.2,3.9-12.1C56.6,42,36.8,42.9,36.8,42.9z"/>
<path class="st0" d="M36,43.9c0.7,11,0.7,20.9,1.9,22.1c1.1,1.2,11.5-2.4,11.7-5.1C49.9,58.2,36,43.9,36,43.9z"/>
<path class="st0" d="M34.6,41.5c-4.6-10-8.3-19.2-9.8-19.9c-1.5-0.8-9.9,6.4-9.1,9C16.5,33.2,34.6,41.5,34.6,41.5z"/>
</svg>
