<?xml version="1.0" encoding="utf-8"?>
<!-- Generator: Adobe Illustrator 23.0.6, SVG Export Plug-In . SVG Version: 6.00 Build 0)  -->
<svg version="1.1" id="Layer_1" xmlns="http://www.w3.org/2000/svg" xmlns:xlink="http://www.w3.org/1999/xlink" x="0px" y="0px"
	 viewBox="0 0 71 71" style="enable-background:new 0 0 71 71;" xml:space="preserve">
<style type="text/css">
	.st0{fill:#56B300;}
	.st1{fill:#F9BF70;}
</style>
<g>
	<path class="st0" d="M35.3,17.1c0,0-2.2-16.4,17.6-17.1C52.9,0,51.9,18.4,35.3,17.1z"/>
</g>
<path class="st1" d="M35.4,15.1c-15.5,0-28,12.5-28,28c0,15.5,12.5,28,28,28s28-12.5,28-28C63.4,27.6,50.9,15.1,35.4,15.1z
	 M35.4,64.2c-11.7,0-21.2-9.5-21.2-21.2c0-11.7,9.5-21.2,21.2-21.2s21.2,9.5,21.2,21.2C56.6,54.8,47.1,64.2,35.4,64.2z"/>
</svg>
